<?xml version="1.0" standalone="no"?><!DOCTYPE svg PUBLIC "-//W3C//DTD SVG 1.1//EN" "http://www.w3.org/Graphics/SVG/1.1/DTD/svg11.dtd"><svg t="1759394810204" class="icon" viewBox="0 0 1024 1024" version="1.1" xmlns="http://www.w3.org/2000/svg" p-id="2395" xmlns:xlink="http://www.w3.org/1999/xlink" width="200" height="200"><path d="M462.608 444.544a154.512 154.512 0 0 1 117.552 0.672c14.8 5.936 31.584-0.672 37.632-15.168s-0.688-30.992-15.456-36.928c-52.384-21.76-109.472-21.76-161.888-0.672-52.384 21.104-93.36 60.656-114.864 112.08a27.728 27.728 0 0 0 6.032 30.992c2.688 2.64 5.376 4.608 9.408 5.936 14.768 5.936 31.568-0.656 37.616-15.184 16.128-37.552 45.696-65.904 83.968-81.728z" p-id="2396" fill="#8a8a8a"></path><path d="M464.672 582.8c6.496-16.336 18.88-29.488 34.24-36.384a59.168 59.168 0 0 1 48.384 0c12.992 6.272 27.76 0 33.664-13.792 5.312-13.792-0.576-29.488-13.584-35.12-28.336-12.544-59.024-12.544-87.36-0.64-28.336 12.544-50.176 35.12-62 65.232-4.112 10.672-1.76 21.968 5.312 29.488 2.368 2.512 4.72 4.368 8.272 5.648 12.992 5.632 27.744-0.656 33.072-14.432z" p-id="2397" fill="#8a8a8a"></path><path d="M732.32 80.736C645.664 80 564.944 123.616 512.352 195.328 459.04 123.616 379.04 80 291.664 80 135.392 80 8 218.976 8 389.744c0 98.304 43.264 168.736 78.976 225.536a86.448 86.448 0 0 0 18.784 93.808l45.184 45.088c33.328 33.28 88.128 33.28 121.472 0l30.352-30.304c33.328-33.264 33.328-87.952 0-121.248L257.6 557.552c-33.328-33.248-88.144-33.248-121.456 0l-1.488 1.488-3.872 4.224C98.4 511.04 70.976 458.736 70.976 389.76 70.976 256.704 169.472 149.504 291.664 149.504c89.632 0 167.392 59.136 201.456 143.408V292.16c2.224 8.864 9.632 15.52 18.512 15.52 8.896 0 16.304-6.656 18.496-15.52C564.224 207.888 641.232 149.488 731.6 149.488c121.456 0 220.688 107.92 220.688 240.256 0 76.88-33.312 132.336-71.088 191.472l0.208 0.144c-3.072 4.88-20.256 30.704-70.544 84.88-66.64 61.184-83.696 66.512-83.696 66.512s-25.712-69.856-78.496-95.36c-62.736-31.952-139.984-23.664-191.808 28.096-63.696 62.848-64.432 166.336-1.488 229.904 63.696 64.336 168.128 65.04 231.792 0.752 21.488-22.208 36.304-48.064 42.976-76.16l1.488-1.472s113.072-72.032 198.48-193.68c1.376-1.536 2.544-3.072 3.52-4.576l0.192 0.144C970.08 562.736 1016 491.76 1016 389.744 1015.984 218.976 888.592 80.736 732.32 80.736zM150.192 632.96l30.368-30.32a22.4 22.4 0 0 1 31.84 0l45.184 45.088a22.32 22.32 0 0 1 0 31.808l-30.368 30.32a22.4 22.4 0 0 1-31.856 0l-45.184-45.088a22.336 22.336 0 0 1 0.016-31.808z m491.792 218.8a101.184 101.184 0 0 1-141.472 0c-38.512-38.416-39.248-101.984 0-141.184 38.528-38.416 102.208-39.168 141.472 0 38.496 38.432 39.232 102.016 0 141.184z" p-id="2398" fill="#8a8a8a"></path></svg>