<?xml version="1.0" standalone="no"?><!DOCTYPE svg PUBLIC "-//W3C//DTD SVG 1.1//EN" "http://www.w3.org/Graphics/SVG/1.1/DTD/svg11.dtd"><svg t="1757424268940" class="icon" viewBox="0 0 1024 1024" version="1.1" xmlns="http://www.w3.org/2000/svg" p-id="4550" xmlns:xlink="http://www.w3.org/1999/xlink" width="200" height="200"><path d="M170.666667 256H85.333333v597.333333c0 47.146667 38.186667 85.333333 85.333334 85.333334h597.333333v-85.333334H170.666667V256z m682.666666-170.666667H341.333333c-47.146667 0-85.333333 38.186667-85.333333 85.333334v512c0 47.146667 38.186667 85.333333 85.333333 85.333333h512c47.146667 0 85.333333-38.186667 85.333334-85.333333V170.666667c0-47.146667-38.186667-85.333333-85.333334-85.333334z m-42.666666 384h-170.666667v170.666667h-85.333333v-170.666667h-170.666667v-85.333333h170.666667v-170.666667h85.333333v170.666667h170.666667v85.333333z" p-id="4551" fill="#1296db"></path></svg>